<svg width="512" height="512" viewBox="0 0 512 512" fill="none" xmlns="http://www.w3.org/2000/svg">
<mask id="mask0" mask-type="alpha" maskUnits="userSpaceOnUse" x="0" y="0" width="512" height="512">
<circle cx="256" cy="256" r="256" fill="#C4C4C4"/>
</mask>
<g mask="url(#mask0)">
<rect width="512" height="512" fill="white"/>
<rect width="512" height="512" fill="#2069D7"/>
<g clip-path="url(#clip0)">
<rect x="220.362" y="327.934" width="579" height="52" transform="rotate(135 220.362 327.934)" fill="#F5F5F5"/>
<rect x="213.291" y="320.862" width="579" height="16" transform="rotate(135 213.291 320.862)" fill="#EC2E2E"/>
</g>
<g clip-path="url(#clip1)">
<rect x="327.934" y="291.638" width="579" height="52" transform="rotate(45 327.934 291.638)" fill="#F5F5F5"/>
<rect x="320.862" y="298.709" width="579" height="16" transform="rotate(45 320.862 298.709)" fill="#EC2E2E"/>
</g>
<g clip-path="url(#clip2)">
<rect x="291.638" y="184.066" width="579" height="52" transform="rotate(-45 291.638 184.066)" fill="#F5F5F5"/>
<rect x="298.709" y="191.138" width="579" height="16" transform="rotate(-45 298.709 191.138)" fill="#EC2E2E"/>
</g>
<g clip-path="url(#clip3)">
<rect x="184.066" y="220.362" width="579" height="52" transform="rotate(-135 184.066 220.362)" fill="#F5F5F5"/>
<rect x="191.138" y="213.291" width="579" height="16" transform="rotate(-135 191.138 213.291)" fill="#EC2E2E"/>
</g>
<rect y="191" width="512" height="30" fill="#F5F5F5"/>
<rect y="291" width="512" height="30" fill="#F5F5F5"/>
<rect x="221" width="512" height="30" transform="rotate(90 221 0)" fill="#F5F5F5"/>
<rect x="321" width="512" height="30" transform="rotate(90 321 0)" fill="#F5F5F5"/>
<rect y="221" width="513" height="70" fill="#EC2E2E"/>
<rect x="291" width="512" height="70" transform="rotate(90 291 0)" fill="#EC2E2E"/>
</g>
<defs>
<clipPath id="clip0">
<rect width="221" height="221" fill="white" transform="translate(0 291)"/>
</clipPath>
<clipPath id="clip1">
<rect width="221" height="221" fill="white" transform="translate(291 512) rotate(-90)"/>
</clipPath>
<clipPath id="clip2">
<rect width="221" height="221" fill="white" transform="translate(512 221) rotate(180)"/>
</clipPath>
<clipPath id="clip3">
<rect width="221" height="221" fill="white" transform="translate(221) rotate(90)"/>
</clipPath>
</defs>
</svg>
