<svg width="512" height="512" viewBox="0 0 512 512" fill="none" xmlns="http://www.w3.org/2000/svg">
<mask id="mask0" mask-type="alpha" maskUnits="userSpaceOnUse" x="0" y="0" width="512" height="512">
<circle cx="256" cy="256" r="256" fill="#C4C4C4"/>
</mask>
<g mask="url(#mask0)">
<rect width="512" height="512" transform="translate(-1)" fill="#F5F5F5"/>
<rect x="-1" width="512" height="56.8889" fill="#2069D7"/>
<rect x="-1" y="114" width="512" height="56.8889" fill="#2069D7"/>
<rect x="-1" y="228" width="512" height="56.8889" fill="#2069D7"/>
<rect x="-1" y="342" width="512" height="56.8889" fill="#2069D7"/>
<rect x="-1" y="456" width="512" height="56.8889" fill="#2069D7"/>
<rect x="-1" y="57" width="512" height="56.8889" fill="#F5F5F5"/>
<rect x="-1" y="171" width="512" height="56.8889" fill="#F5F5F5"/>
<rect x="-1" y="285" width="512" height="56.8889" fill="#F5F5F5"/>
<rect x="-1" y="399" width="512" height="56.8889" fill="#F5F5F5"/>
<rect x="-1" width="300" height="285" fill="#2069D7"/>
<rect x="-1" y="114" width="300" height="57" fill="#F5F5F5"/>
<rect x="178" width="285" height="58" transform="rotate(90 178 0)" fill="#F5F5F5"/>
</g>
</svg>
