<?xml version="1.0" encoding="UTF-8"?>
<svg id="Layer_1" data-name="Layer 1" xmlns="http://www.w3.org/2000/svg" width="255.39" height="75.11" viewBox="0 0 255.39 75.11">
  <defs>
    <style>
      .cls-1 {
        fill: #fff;
        stroke-width: 0px;
      }
    </style>
  </defs>
  <path class="cls-1" d="M10.33,61.13V14.27c0-.27.22-.49.49-.49h7.6c.27,0,.49.22.49.49v39.59h18.52c.27,0,.49.22.49.49v6.78c0,.27-.22.49-.49.49H10.82c-.27,0-.49-.22-.49-.49Z"/>
  <path class="cls-1" d="M52.88,61.62h-8c-.35,0-.59-.35-.45-.68L64,14.08c.08-.18.25-.3.45-.3h6.62c.2,0,.37.12.45.3l19.56,46.86c.13.32-.1.68-.45.68h-8c-.2,0-.38-.12-.45-.31l-14.43-35.79-14.42,35.79c-.07.18-.25.31-.45.31ZM67.76,25.52"/>
  <path class="cls-1" d="M97.57,61.13V14.27c0-.27.22-.49.49-.49h16.6c7.89,0,14.07,2.2,18.46,6.66,4.46,4.39,6.66,10.16,6.66,17.36s-2.2,12.97-6.59,17.29c-4.39,4.32-10.57,6.52-18.46,6.52h-16.67c-.27,0-.49-.22-.49-.49ZM106.15,53.86h7.96c11.87,0,17.09-6.24,17.09-16.06s-5.15-16.26-17.16-16.26h-7.89v32.32Z"/>
  <path class="cls-1" d="M153.33,55.44c-4.87-4.74-7.34-10.64-7.34-17.64s2.47-12.9,7.34-17.64c4.87-4.8,10.84-7.21,17.91-7.21s13.04,2.4,17.91,7.21c4.94,4.74,7.41,10.64,7.41,17.64s-2.47,12.9-7.34,17.64c-4.87,4.74-10.91,7.14-17.98,7.14s-13.04-2.4-17.91-7.14ZM159.23,49.95c3.23,3.22,7.28,4.87,12.01,4.87s8.72-1.65,11.94-4.87c3.23-3.29,4.87-7.34,4.87-12.15s-1.65-8.85-4.87-12.15c-3.22-3.29-7.21-4.94-11.94-4.94s-8.78,1.65-12.01,4.94c-3.22,3.29-4.8,7.34-4.8,12.15s1.58,8.92,4.8,12.15Z"/>
  <path class="cls-1" d="M244.34,13.85h-9.73c-.15,0-.28.06-.38.18l-19.67,23.67,19.67,23.67c.09.11.23.18.38.18h9.73c.41,0,.64-.48.38-.8l-19.15-23.05,19.15-23.05c.26-.32.04-.8-.38-.8Z"/>
  <rect class="cls-1" x="202.8" y="13.78" width="8.65" height="47.83" rx=".49" ry=".49"/>
</svg>